<?xml version="1.0" encoding="UTF-8"?><svg id="Capa_1" xmlns="http://www.w3.org/2000/svg" viewBox="0 0 499.84 344.76"><defs><style>.cls-1{fill:#ccc;}</style></defs><path class="cls-1" d="M497.42,26.81C489,10.28,475.91,.15,456.99,.12,318.94-.06,180.89,0,42.84,.06c-15.7,0-27.45,7.61-36.66,19.92C1.55,26.17,.8,33.34,0,40.59V304.17c1.15,4.53,.22,9.46,2.42,13.78,8.42,16.53,21.51,26.66,40.43,26.69,138.05,.18,276.1,.12,414.15,.06,15.7,0,27.45-7.61,36.66-19.92,4.63-6.19,5.39-13.36,6.19-20.61V40.59c-1.15-4.53-.22-9.46-2.42-13.78Zm-48.77,3.96c.24,1.52-1.21,1.96-2.05,2.66-59.08,49.22-118.18,98.42-177.3,147.6-12.84,10.68-25.9,10.68-38.76-.01C171.41,131.84,112.31,82.64,53.21,33.43c-.82-.68-1.59-1.42-2.99-2.67H448.64ZM29.47,52.69c1.32-.68,1.92,.68,2.66,1.3,46.11,38.36,92.19,76.76,138.31,115.09,2.15,1.78,3.18,2.56,.03,4.65-46.82,31.01-93.55,62.17-141,93.75V52.69ZM466.77,309.21c-3.37,3.88-7.77,5.06-12.67,5.05-7.32,0-14.64,0-21.96,0-60.83,0-121.66,0-182.49,0-67.34,0-134.67-.02-202.01,.03-6.11,0-11.68-.9-15.54-6.25-2.23-3.1-2.85-5.36,1.27-8.09,53.36-35.3,106.6-70.76,159.78-106.34,3.03-2.02,4.77-1.84,7.38,.41,7.25,6.24,14.17,13.08,22.81,17.39,22.45,11.18,43.63,8.54,63.32-6.77,4.36-3.39,8.66-6.89,12.71-10.64,2.59-2.41,4.41-2.33,7.38-.35,51.56,34.48,103.22,68.81,154.86,103.17,1.35,.9,2.71,1.79,4.06,2.69,5.14,3.42,5.27,4.89,1.1,9.69Zm3.65-42.44c-1.79,.21-2.74-1.11-3.87-1.86-45.43-30.19-90.84-60.42-136.25-90.64-2.07-1.38-4.78-2.03-1-5.16,46.31-38.37,92.48-76.91,138.7-115.39,.59-.49,1.23-.93,2.42-1.83v214.89Z"/></svg>