<?xml version="1.0" encoding="UTF-8"?><svg id="Capa_1" xmlns="http://www.w3.org/2000/svg" viewBox="0 0 488.97 489.38"><path d="M488.97,427.25v17.2c-.82,.93-.55,2.13-.71,3.19-3.32,22.74-19.17,38.35-41.88,41.21-1.07,.13-2.25-.31-3.2,.53h-17.17c-.36-.36-.8-.47-1.29-.47-13.95,.04-23.93-7.83-33.1-16.98-46.74-46.65-93.32-93.45-139.98-140.18q-6.88-6.89-13.75-.02c-45.52,45.61-91.09,91.18-136.55,136.86-3.94,3.96-8.14,7.58-12.35,11.21-6.95,5.99-15.11,8.79-24.2,9.1-.77,.03-1.6-.16-2.24,.48h-17.17c-1.08-.84-2.46-.72-3.64-.79-15.85-.9-25.77-10.86-34.37-22.65C-.88,454.64,.16,441.45,.14,428.44c-.02-15.2,7.69-26.48,17.79-36.62,46.14-46.32,92.35-92.56,138.53-138.83,.79-.79,1.57-1.58,2.36-2.37,5.64-5.72,5.66-6.2,.05-11.81C112.91,192.76,66.97,146.7,20.97,100.69c-4.17-4.17-7.95-8.66-11.74-13.16C2.2,79.16,.37,69.12,.05,58.59c-.21-6.85,.3-13.65,1.07-20.44,.85-7.45,4.78-13.53,9.32-19.02C19.49,8.16,30.42,.25,45.51,.43c.3,0,.58-.2,.82-.43h16.22c.13,.1,.25,.28,.38,.28,14.77-.22,25.54,7.67,35.34,17.5,46.29,46.42,92.64,92.78,138.94,139.19,.79,.79,1.57,1.58,2.36,2.36,4.87,4.8,5.53,4.84,10.36,0,46.76-46.85,93.56-93.66,140.28-140.55,3.72-3.73,7.9-6.88,11.83-10.35,7.16-6.33,16.09-7.2,24.93-8.42h16.22c.25,.22,.52,.43,.82,.43,19.92,.35,31.97,12.33,41.24,28.23,3.07,5.26,2.32,11.51,3.74,17.22v17.2c-.36,.36-.47,.8-.47,1.29,.04,13.97-7.81,23.98-16.95,33.17-46.56,46.83-93.27,93.5-139.91,140.25q-6.88,6.89-.02,13.77c45.52,45.61,91,91.27,136.59,136.81,3.95,3.94,7.57,8.15,11.19,12.37,5.98,6.96,8.78,15.14,9.08,24.25,.03,.77-.16,1.6,.48,2.25Z"/></svg>