<?xml version="1.0" encoding="utf-8"?>
<!-- Generator: Adobe Illustrator 26.4.1, SVG Export Plug-In . SVG Version: 6.00 Build 0)  -->
<svg version="1.1" xmlns="http://www.w3.org/2000/svg" xmlns:xlink="http://www.w3.org/1999/xlink" x="0px" y="0px"
	 viewBox="0 0 500 500" style="enable-background:new 0 0 500 500;" xml:space="preserve">
<style type="text/css">
	.st0{fill:#CCCCCC;}
	.st1{display:none;}
	.st2{display:inline;fill:#CCCCCC;}
</style>
<g id="Capa_1">
	<path class="st0" d="M267.75,11.5c5.06,1.9,10.46,1.53,15.68,2.43c91.61,15.78,154.84,67.08,189.83,152.85
		c12.26,30.06,16.56,61.82,14.9,94.38c-2.65,51.72-19.82,98.2-50.97,139.27c-33.18,43.74-76.1,73.71-129.6,87.74
		c-0.44,0.11-0.9,0.13-1.64,0.23c0-5.21,0-10.32,0-15.43c0-25.78-0.4-51.57,0.14-77.34c0.36-17.03-3.43-32.24-14.75-45.24
		c-0.89-1.02-1.53-2.26-2.6-3.87c9.14-1.75,17.87-3.43,26.35-6.13c18.91-6.02,36.03-15.08,49.72-29.74
		c15.66-16.77,24.16-36.85,26.91-59.52c3.2-26.45-4.66-50.01-19.35-71.48c-4.18-6.1-4.83-11.44-3.06-18.46
		c4.26-16.91,1.56-33.54-3.96-49.82c-0.67-1.97-1.7-1.67-3.47-1.59c-20.12,0.9-36.39,11.42-52.93,21.13
		c-4.16,2.44-7.86,3.19-12.64,1.95c-31.28-8.13-62.61-8.02-93.85,0.31c-3.77,1-6.81,0.39-10.08-1.61
		c-11.36-6.95-22.78-13.82-35.36-18.44c-6.35-2.33-13.14-2.11-19.63-3.57c-2.49-0.56-2.35,1.47-2.79,2.74
		c-6.25,17.69-7.96,35.66-2.74,53.89c1.11,3.87,0.39,6.6-1.97,9.77c-18.08,24.24-24.52,51.64-20.02,81.27
		c6.47,42.63,32.74,68.42,72.29,82.23c9.32,3.26,18.99,5.25,29.29,7.01c-2.65,3.82-4.97,7.25-7.37,10.61
		c-4.22,5.89-7.15,12.32-8.14,19.52c-0.37,2.65-1.62,3.87-4.2,4.65c-16.07,4.84-27.5,1.02-36.94-13.16
		c-7.48-11.24-15.7-21.57-28.01-27.9c-6.88-3.54-14.1-5.49-21.88-5.34c-1.86,0.04-2.71,0.19-2.45,2.5
		c0.86,7.56,1.42,15.14,2.1,22.72c0.12,1.31-0.21,2.65,2.02,2.82c9.06,0.68,14.66,6.77,19.72,13.37
		c4.81,6.27,8.54,13.35,14.34,18.86c13.59,12.91,29.66,18.05,48.23,15.4c1.65-0.24,3.3-0.38,5.12-0.59c0,26.25,0,52.31,0,78.59
		c-20.18-4.78-39.08-12.47-56.88-22.64c-40.75-23.29-72.15-55.94-94.71-96.97c-15.61-28.38-25.49-58.73-29.11-91.02
		c-0.28-2.48,0.07-5.19-1.8-7.31c0-1.55,0-3.11,0-4.66c0.64-0.59,0.43-1.38,0.48-2.11c0-0.57,0-1.14,0-1.7c0-0.57,0-1.14,0-1.71
		c0-0.57,0-1.13,0-1.7c-0.05-0.73,0.16-1.51-0.48-2.1c0-4.66,0-9.32,0-13.98c0.83-0.87,0.35-1.96,0.48-2.95c0-0.83,0-1.66,0-2.49
		c-0.13-0.99,0.35-2.08-0.48-2.96c0-1.24,0-2.49,0-3.73c1.28-8.38,1.42-16.87,3.05-25.25c5.63-28.8,16.16-55.62,31.56-80.57
		c10.4-16.85,22.6-32.28,36.82-46.02c24.64-23.8,52.93-41.87,85.16-53.73c15.94-5.86,32.26-10.03,49.1-12.22
		c4.41-0.57,8.92-0.16,13.29-1.21c1.24,0,2.49,0,3.73,0c0.87,0.83,1.96,0.35,2.95,0.48c0.83,0,1.66,0,2.49,0
		c0.99-0.13,2.08,0.35,2.96-0.48c4.97,0,9.94,0,14.91,0c0.87,0.83,1.96,0.35,2.95,0.48c0.83,0,1.66,0,2.49,0
		c0.99-0.13,2.08,0.35,2.96-0.48C266.51,11.5,267.13,11.5,267.75,11.5z"/>
</g>
<g id="Capa_2" class="st1">
	<path class="st2" d="M472.39,191.89c0-40.65-0.31-81.31,0.13-121.96c0.23-21.67-20.89-42.48-42.53-42.43
		C309.9,27.78,189.8,27.63,69.71,27.64c-6.28,0-12.36,0.92-17.99,4.02c-13.44,7.41-22.37,18.02-24.24,33.72
		c0,123.26,0,246.53,0,369.79c0.77,5.76,2.28,11.25,5.58,16.15c7.65,11.38,17.24,19.78,31.71,20.73c1.46,0.21,3-0.46,4.39,0.45
		c120.38,0,240.77,0,361.15,0c1.68-0.92,3.49-0.23,5.22-0.45c4.54-0.19,8.83-1.18,12.82-3.49c15.61-9.04,24.18-21.91,24.13-40.57
		C472.27,349.3,472.39,270.59,472.39,191.89z M156.94,405.81c-19.66-0.1-39.33-0.13-58.99,0.02c-3.03,0.02-3.81-0.71-3.79-3.77
		c0.12-32.24,0.08-64.48,0.08-96.72c0-31.81,0.04-63.61-0.07-95.42c-0.01-3.06,0.47-4.14,3.9-4.11c19.66,0.2,39.33,0.16,58.99,0.03
		c2.94-0.02,3.9,0.63,3.89,3.76c-0.09,64.19-0.1,128.38,0.01,192.57C160.96,405.49,159.71,405.83,156.94,405.81z M126.86,167.92
		c-22.02-0.49-39.65-18.42-39.38-40.06c0.28-22.06,18.48-40.09,40.19-39.82c22.27,0.28,40.17,18.6,39.69,40.63
		C166.87,150.94,148.86,168.41,126.86,167.92z M401.28,405.84c-19.53-0.16-39.06-0.19-58.59,0.01c-3.59,0.04-4.19-1.12-4.18-4.37
		c0.11-37.03,0.11-74.07,0.05-111.1c-0.02-16.9-9.08-29.37-24.61-34.21c-18.35-5.73-39.85,8.66-41.58,27.86
		c-0.25,2.73-0.35,5.49-0.35,8.23c-0.02,36.31-0.09,72.62,0.09,108.93c0.02,3.95-1.08,4.7-4.79,4.66
		c-19.38-0.19-38.77-0.15-58.16-0.02c-2.9,0.02-3.89-0.5-3.88-3.68c0.1-64.23,0.09-128.46,0.02-192.69c0-2.72,0.55-3.64,3.49-3.62
		c19.82,0.14,39.64,0.14,59.46,0c3.05-0.02,3.92,0.81,3.82,3.84c-0.22,7.07-0.07,14.15-0.07,21.22
		c7.43-9.04,15.96-16.21,26.08-21.43c25.98-13.4,50.81-9.69,73.86,6.55c22.25,15.68,33.31,37.75,33.29,65.17
		c-0.03,40.22-0.05,80.43,0.08,120.65C405.32,405.12,404.49,405.87,401.28,405.84z"/>
</g>
</svg>
