<?xml version="1.0" encoding="UTF-8"?><svg id="Capa_1" xmlns="http://www.w3.org/2000/svg" viewBox="0 0 499.2 431.11"><defs><style>.cls-1{fill:#5e5e5e;}</style></defs><path d="M248.97,93.05c-67.43,0-134.85,0-202.28,0-26.23,0-46.54-20.27-46.56-46.42C.12,20.64,20.66,.06,46.69,.05,181.89,.03,317.1,.02,452.3,0c25.68,0,46.79,21.04,46.78,46.64,0,25.84-20.78,46.49-46.78,46.49-67.78,0-135.56,0-203.34,0v-.08Z"/><path class="cls-1" d="M249.21,169c67.79,0,135.59,0,203.38,0,24.49,0,44.51,18.52,46.47,42.95,1.86,23.24-15,44.96-38.08,49.2-2.96,.54-5.87,.93-8.88,.93-134.88-.03-269.76-.03-404.65-.04-22.93,0-41.73-14.45-46.38-36.89-6.76-32.66,19.72-56.29,44.23-56.2,67.97,.26,135.94,.09,203.91,.09v-.04Z"/><path d="M245.98,338.11c66.19,0,132.38,0,198.58,0,26.12,0,46.43,20.44,46.35,46.61-.08,25.77-20.56,46.38-46.21,46.38-132.74,.02-265.47,.02-398.21,0-23.55,0-44.14-18.61-46.23-40.97-2.6-27.85,16.49-47.85,38.71-51.7,2.58-.45,5.27-.32,7.9-.32,66.37-.02,132.74-.01,199.1-.01Z"/></svg>